<svg xmlns="http://www.w3.org/2000/svg" xmlns:xlink="http://www.w3.org/1999/xlink" width="1080" zoomAndPan="magnify" viewBox="0 0 810 809.999993" height="1080" preserveAspectRatio="xMidYMid meet" version="1.0"><defs><clipPath id="fc25ae6db4"><path d="M 274 11 L 537 11 L 537 274 L 274 274 Z M 274 11 " clip-rule="nonzero"/></clipPath><clipPath id="785506dde7"><path d="M 405.152344 11.476562 L 536.519531 142.84375 L 405.535156 273.824219 L 274.167969 142.457031 Z M 405.152344 11.476562 " clip-rule="nonzero"/></clipPath><clipPath id="baab05975d"><path d="M 0.078125 0.28125 L 262.640625 0.28125 L 262.640625 262.839844 L 0.078125 262.839844 Z M 0.078125 0.28125 " clip-rule="nonzero"/></clipPath><clipPath id="6f3affcfeb"><path d="M 131.152344 0.476562 L 262.519531 131.84375 L 131.535156 262.824219 L 0.167969 131.457031 Z M 131.152344 0.476562 " clip-rule="nonzero"/></clipPath><clipPath id="669212e0e4"><rect x="0" width="263" y="0" height="263"/></clipPath><clipPath id="6ae5ea50a2"><path d="M 274 536 L 537 536 L 537 799 L 274 799 Z M 274 536 " clip-rule="nonzero"/></clipPath><clipPath id="6010bd4948"><path d="M 405.152344 536.175781 L 536.519531 667.542969 L 405.535156 798.527344 L 274.167969 667.160156 Z M 405.152344 536.175781 " clip-rule="nonzero"/></clipPath><clipPath id="a21041c2ee"><path d="M 0.078125 0.160156 L 262.640625 0.160156 L 262.640625 262.71875 L 0.078125 262.71875 Z M 0.078125 0.160156 " clip-rule="nonzero"/></clipPath><clipPath id="6f6a86d233"><path d="M 131.152344 0.175781 L 262.519531 131.542969 L 131.535156 262.527344 L 0.167969 131.160156 Z M 131.152344 0.175781 " clip-rule="nonzero"/></clipPath><clipPath id="023a7e2083"><rect x="0" width="263" y="0" height="263"/></clipPath><clipPath id="2397da8140"><path d="M 274 273 L 537 273 L 537 537 L 274 537 Z M 274 273 " clip-rule="nonzero"/></clipPath><clipPath id="c16317d9ae"><path d="M 405.152344 273.824219 L 536.519531 405.191406 L 405.535156 536.175781 L 274.167969 404.808594 Z M 405.152344 273.824219 " clip-rule="nonzero"/></clipPath><clipPath id="db8625d192"><path d="M 0.078125 0.601562 L 262.640625 0.601562 L 262.640625 263.398438 L 0.078125 263.398438 Z M 0.078125 0.601562 " clip-rule="nonzero"/></clipPath><clipPath id="68197d83e8"><path d="M 131.152344 0.824219 L 262.519531 132.191406 L 131.535156 263.175781 L 0.167969 131.808594 Z M 131.152344 0.824219 " clip-rule="nonzero"/></clipPath><clipPath id="3c8a68735d"><rect x="0" width="263" y="0" height="264"/></clipPath><clipPath id="23a10a5173"><path d="M 517 255 L 799 255 L 799 537 L 517 537 Z M 517 255 " clip-rule="nonzero"/></clipPath><clipPath id="00f6abb6f5"><path d="M 648.1875 255.199219 L 798.179688 405.191406 L 667.195312 536.175781 L 517.203125 386.183594 Z M 648.1875 255.199219 " clip-rule="nonzero"/></clipPath><clipPath id="529f382dd4"><path d="M 0.199219 0.121094 L 281.238281 0.121094 L 281.238281 281.398438 L 0.199219 281.398438 Z M 0.199219 0.121094 " clip-rule="nonzero"/></clipPath><clipPath id="6610e4532b"><path d="M 131.1875 0.199219 L 281.179688 150.191406 L 150.195312 281.175781 L 0.203125 131.183594 Z M 131.1875 0.199219 " clip-rule="nonzero"/></clipPath><clipPath id="df8e1ee357"><rect x="0" width="282" y="0" height="282"/></clipPath><clipPath id="c5904122a9"><path d="M 11 239 L 309 239 L 309 537 L 11 537 Z M 11 239 " clip-rule="nonzero"/></clipPath><clipPath id="358d15d6b9"><path d="M 177.390625 239.234375 L 308.757812 370.601562 L 143.183594 536.175781 L 11.816406 404.808594 Z M 177.390625 239.234375 " clip-rule="nonzero"/></clipPath><clipPath id="082a5728e9"><path d="M 0.761719 0.0390625 L 297.878906 0.0390625 L 297.878906 297.398438 L 0.761719 297.398438 Z M 0.761719 0.0390625 " clip-rule="nonzero"/></clipPath><clipPath id="3389ea8428"><path d="M 166.390625 0.234375 L 297.757812 131.601562 L 132.183594 297.175781 L 0.816406 165.808594 Z M 166.390625 0.234375 " clip-rule="nonzero"/></clipPath><clipPath id="53590e585e"><rect x="0" width="298" y="0" height="298"/></clipPath></defs><g clip-path="url(#fc25ae6db4)"><g clip-path="url(#785506dde7)"><g transform="matrix(1, 0, 0, 1, 274, 11)"><g clip-path="url(#669212e0e4)"><g clip-path="url(#baab05975d)"><g clip-path="url(#6f3affcfeb)"><path fill="#000000" d="M 131.152344 0.476562 L 262.648438 131.96875 L 131.664062 262.953125 L 0.167969 131.457031 Z M 131.152344 0.476562 " fill-opacity="1" fill-rule="nonzero"/></g></g></g></g></g></g><g clip-path="url(#6ae5ea50a2)"><g clip-path="url(#6010bd4948)"><g transform="matrix(1, 0, 0, 1, 274, 536)"><g clip-path="url(#023a7e2083)"><g clip-path="url(#a21041c2ee)"><g clip-path="url(#6f6a86d233)"><path fill="#000000" d="M 131.152344 0.175781 L 262.648438 131.671875 L 131.664062 262.65625 L 0.167969 131.160156 Z M 131.152344 0.175781 " fill-opacity="1" fill-rule="nonzero"/></g></g></g></g></g></g><g clip-path="url(#2397da8140)"><g clip-path="url(#c16317d9ae)"><g transform="matrix(1, 0, 0, 1, 274, 273)"><g clip-path="url(#3c8a68735d)"><g clip-path="url(#db8625d192)"><g clip-path="url(#68197d83e8)"><path fill="#0b65f8" d="M 131.152344 0.824219 L 262.648438 132.320312 L 131.664062 263.304688 L 0.167969 131.808594 Z M 131.152344 0.824219 " fill-opacity="1" fill-rule="nonzero"/></g></g></g></g></g></g><g clip-path="url(#23a10a5173)"><g clip-path="url(#00f6abb6f5)"><g transform="matrix(1, 0, 0, 1, 517, 255)"><g clip-path="url(#df8e1ee357)"><g clip-path="url(#529f382dd4)"><g clip-path="url(#6610e4532b)"><path fill="#000000" d="M 131.1875 0.199219 L 281.101562 150.113281 L 150.117188 281.097656 L 0.203125 131.183594 Z M 131.1875 0.199219 " fill-opacity="1" fill-rule="nonzero"/></g></g></g></g></g></g><g clip-path="url(#c5904122a9)"><g clip-path="url(#358d15d6b9)"><g transform="matrix(1, 0, 0, 1, 11, 239)"><g clip-path="url(#53590e585e)"><g clip-path="url(#082a5728e9)"><g clip-path="url(#3389ea8428)"><path fill="#0b65f8" d="M 166.390625 0.234375 L 297.757812 131.601562 L 132.011719 297.351562 L 0.644531 165.984375 Z M 166.390625 0.234375 " fill-opacity="1" fill-rule="nonzero"/></g></g></g></g></g></g></svg>