<svg xmlns="http://www.w3.org/2000/svg" xmlns:xlink="http://www.w3.org/1999/xlink" width="1080" zoomAndPan="magnify" viewBox="0 0 810 809.999993" height="1080" preserveAspectRatio="xMidYMid meet" version="1.0"><defs><clipPath id="f2bc3d4170"><path d="M 274 11 L 537 11 L 537 274 L 274 274 Z M 274 11 " clip-rule="nonzero"/></clipPath><clipPath id="e2be1de30b"><path d="M 405.152344 11.476562 L 536.519531 142.84375 L 405.535156 273.824219 L 274.167969 142.457031 Z M 405.152344 11.476562 " clip-rule="nonzero"/></clipPath><clipPath id="67bf36549b"><path d="M 0.078125 0.28125 L 262.640625 0.28125 L 262.640625 262.839844 L 0.078125 262.839844 Z M 0.078125 0.28125 " clip-rule="nonzero"/></clipPath><clipPath id="d3a80126be"><path d="M 131.152344 0.476562 L 262.519531 131.84375 L 131.535156 262.824219 L 0.167969 131.457031 Z M 131.152344 0.476562 " clip-rule="nonzero"/></clipPath><clipPath id="e7146b3061"><rect x="0" width="263" y="0" height="263"/></clipPath><clipPath id="188769738d"><path d="M 274 536 L 537 536 L 537 799 L 274 799 Z M 274 536 " clip-rule="nonzero"/></clipPath><clipPath id="08b2ac7d22"><path d="M 405.152344 536.175781 L 536.519531 667.542969 L 405.535156 798.527344 L 274.167969 667.160156 Z M 405.152344 536.175781 " clip-rule="nonzero"/></clipPath><clipPath id="6783903258"><path d="M 0.078125 0.160156 L 262.640625 0.160156 L 262.640625 262.71875 L 0.078125 262.71875 Z M 0.078125 0.160156 " clip-rule="nonzero"/></clipPath><clipPath id="1fb3e83ecc"><path d="M 131.152344 0.175781 L 262.519531 131.542969 L 131.535156 262.527344 L 0.167969 131.160156 Z M 131.152344 0.175781 " clip-rule="nonzero"/></clipPath><clipPath id="b512766eb4"><rect x="0" width="263" y="0" height="263"/></clipPath><clipPath id="fae803a39b"><path d="M 274 273 L 537 273 L 537 537 L 274 537 Z M 274 273 " clip-rule="nonzero"/></clipPath><clipPath id="2449fc99df"><path d="M 405.152344 273.824219 L 536.519531 405.191406 L 405.535156 536.175781 L 274.167969 404.808594 Z M 405.152344 273.824219 " clip-rule="nonzero"/></clipPath><clipPath id="d301061bc8"><path d="M 0.078125 0.601562 L 262.640625 0.601562 L 262.640625 263.398438 L 0.078125 263.398438 Z M 0.078125 0.601562 " clip-rule="nonzero"/></clipPath><clipPath id="d910fe5a21"><path d="M 131.152344 0.824219 L 262.519531 132.191406 L 131.535156 263.175781 L 0.167969 131.808594 Z M 131.152344 0.824219 " clip-rule="nonzero"/></clipPath><clipPath id="78aa7bb791"><rect x="0" width="263" y="0" height="264"/></clipPath><clipPath id="103840253a"><path d="M 517 255 L 799 255 L 799 537 L 517 537 Z M 517 255 " clip-rule="nonzero"/></clipPath><clipPath id="e4eb3b5c54"><path d="M 648.1875 255.199219 L 798.179688 405.191406 L 667.195312 536.175781 L 517.203125 386.183594 Z M 648.1875 255.199219 " clip-rule="nonzero"/></clipPath><clipPath id="3b12ed7b3f"><path d="M 0.199219 0.121094 L 281.238281 0.121094 L 281.238281 281.398438 L 0.199219 281.398438 Z M 0.199219 0.121094 " clip-rule="nonzero"/></clipPath><clipPath id="95202d5e81"><path d="M 131.1875 0.199219 L 281.179688 150.191406 L 150.195312 281.175781 L 0.203125 131.183594 Z M 131.1875 0.199219 " clip-rule="nonzero"/></clipPath><clipPath id="cf7c484a54"><rect x="0" width="282" y="0" height="282"/></clipPath><clipPath id="c02e9bf3b8"><path d="M 11 239 L 309 239 L 309 537 L 11 537 Z M 11 239 " clip-rule="nonzero"/></clipPath><clipPath id="723e51bb47"><path d="M 177.390625 239.234375 L 308.757812 370.601562 L 143.183594 536.175781 L 11.816406 404.808594 Z M 177.390625 239.234375 " clip-rule="nonzero"/></clipPath><clipPath id="864bf1a8e0"><path d="M 0.761719 0.0390625 L 297.878906 0.0390625 L 297.878906 297.398438 L 0.761719 297.398438 Z M 0.761719 0.0390625 " clip-rule="nonzero"/></clipPath><clipPath id="8d70d951e9"><path d="M 166.390625 0.234375 L 297.757812 131.601562 L 132.183594 297.175781 L 0.816406 165.808594 Z M 166.390625 0.234375 " clip-rule="nonzero"/></clipPath><clipPath id="fb0e277209"><rect x="0" width="298" y="0" height="298"/></clipPath></defs><g clip-path="url(#f2bc3d4170)"><g clip-path="url(#e2be1de30b)"><g transform="matrix(1, 0, 0, 1, 274, 11)"><g clip-path="url(#e7146b3061)"><g clip-path="url(#67bf36549b)"><g clip-path="url(#d3a80126be)"><path fill="#ffffff" d="M 131.152344 0.476562 L 262.648438 131.96875 L 131.664062 262.953125 L 0.167969 131.457031 Z M 131.152344 0.476562 " fill-opacity="1" fill-rule="nonzero"/></g></g></g></g></g></g><g clip-path="url(#188769738d)"><g clip-path="url(#08b2ac7d22)"><g transform="matrix(1, 0, 0, 1, 274, 536)"><g clip-path="url(#b512766eb4)"><g clip-path="url(#6783903258)"><g clip-path="url(#1fb3e83ecc)"><path fill="#ffffff" d="M 131.152344 0.175781 L 262.648438 131.671875 L 131.664062 262.65625 L 0.167969 131.160156 Z M 131.152344 0.175781 " fill-opacity="1" fill-rule="nonzero"/></g></g></g></g></g></g><g clip-path="url(#fae803a39b)"><g clip-path="url(#2449fc99df)"><g transform="matrix(1, 0, 0, 1, 274, 273)"><g clip-path="url(#78aa7bb791)"><g clip-path="url(#d301061bc8)"><g clip-path="url(#d910fe5a21)"><path fill="#0b65f8" d="M 131.152344 0.824219 L 262.648438 132.320312 L 131.664062 263.304688 L 0.167969 131.808594 Z M 131.152344 0.824219 " fill-opacity="1" fill-rule="nonzero"/></g></g></g></g></g></g><g clip-path="url(#103840253a)"><g clip-path="url(#e4eb3b5c54)"><g transform="matrix(1, 0, 0, 1, 517, 255)"><g clip-path="url(#cf7c484a54)"><g clip-path="url(#3b12ed7b3f)"><g clip-path="url(#95202d5e81)"><path fill="#ffffff" d="M 131.1875 0.199219 L 281.101562 150.113281 L 150.117188 281.097656 L 0.203125 131.183594 Z M 131.1875 0.199219 " fill-opacity="1" fill-rule="nonzero"/></g></g></g></g></g></g><g clip-path="url(#c02e9bf3b8)"><g clip-path="url(#723e51bb47)"><g transform="matrix(1, 0, 0, 1, 11, 239)"><g clip-path="url(#fb0e277209)"><g clip-path="url(#864bf1a8e0)"><g clip-path="url(#8d70d951e9)"><path fill="#0b65f8" d="M 166.390625 0.234375 L 297.757812 131.601562 L 132.011719 297.351562 L 0.644531 165.984375 Z M 166.390625 0.234375 " fill-opacity="1" fill-rule="nonzero"/></g></g></g></g></g></g></svg>